<svg width="400" height="400" viewBox="0 0 400 400" xmlns="http://www.w3.org/2000/svg">
  <defs>
    <linearGradient id="goldMain" x1="0%" y1="0%" x2="100%" y2="100%">
      <stop offset="0%" stop-color="#F7DC6F"></stop>
      <stop offset="30%" stop-color="#F4D03F"></stop>
      <stop offset="60%" stop-color="#F1C40F"></stop>
      <stop offset="100%" stop-color="#D4AC0D"></stop>
    </linearGradient>
    <linearGradient id="goldShadow" x1="0%" y1="0%" x2="100%" y2="100%">
      <stop offset="0%" stop-color="#B7950B"></stop>
      <stop offset="50%" stop-color="#9A7D0A"></stop>
      <stop offset="100%" stop-color="#7D6608"></stop>
    </linearGradient>
    <linearGradient id="goldHighlight" x1="0%" y1="0%" x2="100%" y2="100%">
      <stop offset="0%" stop-color="#FCF3CF"></stop>
      <stop offset="50%" stop-color="#F7DC6F"></stop>
      <stop offset="100%" stop-color="#F4D03F"></stop>
    </linearGradient>
    <filter id="dropShadow" x="-20%" y="-20%" width="140%" height="140%">
      <feDropShadow dx="4" dy="6" stdDeviation="8" flood-color="#2C3E50" flood-opacity="0.3"></feDropShadow>
    </filter>
  </defs>
  <g transform="translate(200,200)" filter="url(#dropShadow)">
    <g>
      <path d="M -60,-80 L -40,-80 L -40,80 L -60,80 Z" fill="url(#goldMain)" stroke="url(#goldHighlight)" stroke-width="1"></path>
      <path d="M -40,-80 L 20,-80 L 30,-60 L 10,-60 L -40,-60 Z" fill="url(#goldMain)" stroke="url(#goldHighlight)" stroke-width="1"></path>
      <path d="M -40,-10 L 15,-10 L 25,10 L 5,10 L -40,10 Z" fill="url(#goldMain)" stroke="url(#goldHighlight)" stroke-width="1"></path>
      <path d="M -40,60 L 20,60 L 30,80 L 10,80 L -40,80 Z" fill="url(#goldMain)" stroke="url(#goldHighlight)" stroke-width="1"></path>
      <path d="M 10,-60 L 30,-60 L 40,-40 L 25,-10 L 5,10 L 5,-10 L 15,-40 L 10,-60 Z" fill="url(#goldMain)" stroke="url(#goldHighlight)" stroke-width="1"></path>
      <path d="M 5,10 L 25,10 L 40,30 L 30,60 L 10,80 L 10,60 L 20,40 L 5,10 Z" fill="url(#goldMain)" stroke="url(#goldHighlight)" stroke-width="1"></path>
      <path d="M -60,-80 L -50,-90 L -30,-90 L -40,-80 Z" fill="url(#goldShadow)" stroke="url(#goldShadow)" stroke-width="0.5"></path>
      <path d="M -40,-80 L -30,-90 L 30,-90 L 20,-80 Z" fill="url(#goldShadow)" stroke="url(#goldShadow)" stroke-width="0.5"></path>
    </g>
    <g>
      <path d="M 40,-80 L 60,-60 L 60,-40 L 40,-20 L 20,-20 L 20,-40 L 35,-55 L 50,-65 L 40,-80 Z" fill="url(#goldMain)" stroke="url(#goldHighlight)" stroke-width="1"></path>
      <path d="M 20,-20 L 40,-20 L 60,0 L 40,20 L 20,20 L 40,0 L 20,-20 Z" fill="url(#goldMain)" stroke="url(#goldHighlight)" stroke-width="1"></path>
      <path d="M 20,20 L 40,20 L 60,40 L 60,60 L 40,80 L 20,65 L 35,50 L 20,40 L 20,20 Z" fill="url(#goldMain)" stroke="url(#goldHighlight)" stroke-width="1"></path>
      <path d="M 40,-80 L 50,-90 L 70,-70 L 60,-60 Z" fill="url(#goldShadow)" stroke="url(#goldShadow)" stroke-width="0.5"></path>
      <path d="M 60,60 L 70,70 L 50,90 L 40,80 Z" fill="url(#goldShadow)" stroke="url(#goldShadow)" stroke-width="0.5"></path>
    </g>
    <path d="M 30,-60 L 40,-40 L 60,-40 L 60,-60 Z" fill="url(#goldMain)" stroke="url(#goldHighlight)" stroke-width="1"></path>
    <path d="M 60,40 L 60,60 L 30,60 L 40,40 Z" fill="url(#goldMain)" stroke="url(#goldHighlight)" stroke-width="1"></path>
    <line x1="-60" y1="-80" x2="40" y2="-80" stroke="url(#goldHighlight)" stroke-width="2" opacity="0.8"></line>
    <line x1="-60" y1="80" x2="40" y2="80" stroke="url(#goldHighlight)" stroke-width="2" opacity="0.8"></line>
    <line x1="-60" y1="-80" x2="-60" y2="80" stroke="url(#goldHighlight)" stroke-width="2" opacity="0.8"></line>
    <line x1="60" y1="-60" x2="60" y2="60" stroke="url(#goldHighlight)" stroke-width="2" opacity="0.8"></line>
    <circle cx="40" cy="-80" r="3" fill="url(#goldHighlight)" opacity="0.9"></circle>
    <circle cx="60" cy="-60" r="3" fill="url(#goldHighlight)" opacity="0.9"></circle>
    <circle cx="60" cy="60" r="3" fill="url(#goldHighlight)" opacity="0.9"></circle>
    <circle cx="40" cy="80" r="3" fill="url(#goldHighlight)" opacity="0.9"></circle>
    <circle cx="-60" cy="80" r="3" fill="url(#goldHighlight)" opacity="0.9"></circle>
    <circle cx="-60" cy="-80" r="3" fill="url(#goldHighlight)" opacity="0.9"></circle>
  </g>
</svg>